<?xml version="1.0" standalone="no"?>
<!DOCTYPE svg PUBLIC "-//W3C//DTD SVG 20010904//EN"
 "http://www.w3.org/TR/2001/REC-SVG-20010904/DTD/svg10.dtd">
<svg version="1.0" xmlns="http://www.w3.org/2000/svg"
 width="980.000000pt" height="980.000000pt" viewBox="0 0 980.000000 980.000000"
 preserveAspectRatio="xMidYMid meet">
<metadata>
Created by potrace 1.11, written by Peter Selinger 2001-2013
</metadata>
<g transform="translate(0.000000,980.000000) scale(0.100000,-0.100000)"
fill="#000000" stroke="none">
<path d="M4555 9653 c-440 -26 -867 -116 -1247 -265 -97 -37 -134 -57 -156
-83 -39 -43 -55 -96 -50 -154 3 -30 178 -469 515 -1291 281 -685 613 -1495
738 -1800 125 -305 236 -572 246 -592 58 -115 241 -130 323 -27 36 45 1695
3572 1702 3618 9 55 -12 118 -54 162 -65 69 -479 233 -781 309 -409 103 -848
147 -1236 123z"/>
<path d="M7282 8419 c-23 -12 -51 -33 -61 -48 -10 -14 -395 -826 -855 -1804
-550 -1170 -839 -1793 -843 -1823 -7 -56 16 -119 60 -161 20 -20 672 -351
1794 -912 1604 -801 1767 -881 1810 -881 66 1 126 30 161 79 66 91 221 476
297 737 119 408 161 739 152 1201 -7 381 -39 616 -132 968 -295 1122 -1096
2105 -2126 2610 -129 63 -183 70 -257 34z"/>
<path d="M2530 8004 c-64 -22 -353 -163 -463 -225 -705 -400 -1279 -1004
-1641 -1726 -206 -412 -338 -849 -403 -1338 -26 -191 -25 -783 0 -980 64 -490
197 -926 412 -1350 543 -1072 1513 -1841 2687 -2130 802 -198 1684 -135 2473
176 144 57 450 210 593 296 572 346 1056 839 1405 1430 117 198 147 265 147
329 0 63 -18 110 -58 146 -15 14 -796 411 -1737 883 l-1710 858 -670 1631
c-865 2107 -788 1925 -829 1963 -56 52 -126 64 -206 37z"/>
</g>
</svg>
